<?xml version="1.0" encoding="UTF-8"?>
<svg width="180" height="180" viewBox="0 0 180 180" fill="none" xmlns="http://www.w3.org/2000/svg">
  <rect x="30" y="30" width="120" height="140" rx="14" fill="#f4f7fa" stroke="#b0bec5" stroke-width="2"/>
  <rect x="45" y="50" width="90" height="16" rx="4" fill="#e3eaf2"/>
  <rect x="45" y="75" width="60" height="10" rx="3" fill="#cfd8dc"/>
  <rect x="45" y="92" width="70" height="10" rx="3" fill="#cfd8dc"/>
  <rect x="45" y="109" width="50" height="10" rx="3" fill="#cfd8dc"/>
  <rect x="45" y="126" width="80" height="10" rx="3" fill="#cfd8dc"/>
  <!-- Magnifier -->
  <g>
    <circle cx="120" cy="120" r="22" fill="#fffde7" stroke="#ffd54f" stroke-width="3"/>
    <circle cx="120" cy="120" r="13" fill="#fffde7" stroke="#ffd54f" stroke-width="2"/>
    <rect x="135" y="135" width="18" height="6" rx="3" transform="rotate(45 135 135)" fill="#ffd54f"/>
    <rect x="138" y="138" width="10" height="2.5" rx="1.2" transform="rotate(45 138 138)" fill="#fffde7"/>
  </g>
  <!-- Review check -->
  <g>
    <circle cx="60" cy="155" r="13" fill="#b3e5fc"/>
    <path d="M55 155 l5 5 l8 -8" stroke="#039be5" stroke-width="2.5" fill="none" stroke-linecap="round" stroke-linejoin="round"/>
  </g>
  <text x="90" y="45" text-anchor="middle" font-size="13" fill="#607d8b" font-family="Segoe UI, Arial">Reviewing</text>
</svg> 